# xmcd
#
# Track frame offsets: 
#        150
#        10223
#        32131
#        52557
#        83259
#        95367
#        114891
#        133046
#        150233
#        156798
#        172857
#        187250
#        207143
#        223336
#        243904
#        255603
#        276634
#        296122
#
# Disc length: 4089 seconds
#
# Revision: 5
# Processed by: cddbd v1.5.2PL0 Copyright (c) Steve Scherf et al.
# Submitted via: ExactAudioCopy v1.0b3
#
DISCID=ee0ff712
DTITLE=Dr John - N'Awlinz Dis, Dat or D'udda
DYEAR=2004
DGENRE=Funk
TTITLE0=Quatre Parishe
TTITLE1=When the Saints Go Marching In (featuring Mavis Staples)
TTITLE2=Lay My Burden Down (featuring Mavis Staples and The Dirty Dozen 
TTITLE2=Brass Band)
TTITLE3=Marie Laveau (featuring Cyril Neville and The Mardi Gras Indians
TTITLE3=)
TTITLE4=Dear Old Southland (featuring Nicholas Payton)
TTITLE5=Dis, Dat or D'Udda
TTITLE6=Chickee Le Pas (featuring Cyril Neville and The Mardi Gras India
TTITLE6=ns)
TTITLE7=The Monkey (featuring Eddie Bo and Dave Bartholomew)
TTITLE8=Shango Tango (featuring Willie Tee)
TTITLE9=I Ate Up the Apple Tree (featuring Randy Newman)
TTITLE10=You Ain't Such A Much (featuring Willie Nelson and Snooks Eagli
TTITLE10=n)
TTITLE11=Life's a One Way Ticket
TTITLE12=Hen Layin' Rooster (featuring BB King and Clarence "Gatemouth" 
TTITLE12=Brown)
TTITLE13=Stakalee
TTITLE14=Eh Las Bas (featuring Leroy Jones)
TTITLE15=St. James Infirmary (featuring Eddie Bo)
TTITLE16=Time Marches On (featuring BB King, Willie Nelson and The Dirty
TTITLE16=Dozen Brass Band)
TTITLE17=I'm Goin' Home (featuring Cyril Neville)
EXTD=YEAR: 2004
EXTT0=
EXTT1=
EXTT2=
EXTT3=
EXTT4=
EXTT5=
EXTT6=
EXTT7=
EXTT8=
EXTT9=
EXTT10=
EXTT11=
EXTT12=
EXTT13=
EXTT14=
EXTT15=
EXTT16=
EXTT17=
PLAYORDER=
